<?xml version="1.0" encoding="utf-8"?>
<!-- Generator: Adobe Illustrator 22.1.0, SVG Export Plug-In . SVG Version: 6.00 Build 0)  -->
<svg version="1.1" id="圖層_1" xmlns="http://www.w3.org/2000/svg" xmlns:xlink="http://www.w3.org/1999/xlink" x="0px" y="0px"
	 viewBox="0 0 121.7 31" style="enable-background:new 0 0 121.7 31;" xml:space="preserve">
<style type="text/css">
	.st0{fill:#FFFFFF;}
</style>
<title>logo_bottom</title>
<path class="st0" d="M25.1,20.2L25.1,20.2c-1.2-3-2.3-5.8-3.2-8.4l-0.1-0.2h-3.6l0.2,0.4c0.8,1.8,1.4,3,1.7,3.7l2.7,6.5l0.7,1.7
	L20.4,31H23l8.5-19.5h-2.8L25.1,20.2z"/>
<rect x="64.1" y="5.2" class="st0" width="3.2" height="19.3"/>
<path class="st0" d="M74.8,6.1c-0.9,0-1.7,0.8-1.7,1.7l0,0c0,0.4,0.2,0.9,0.5,1.2s0.7,0.5,1.2,0.5c0.4,0,0.9-0.2,1.2-0.5
	c0.3-0.3,0.5-0.7,0.5-1.2C76.5,6.8,75.8,6.1,74.8,6.1C74.9,6.1,74.9,6.1,74.8,6.1z"/>
<rect x="73.2" y="11.6" class="st0" width="3.1" height="12.8"/>
<path class="st0" d="M40.1,11.5c-1.8-0.1-3.6,0.6-4.8,2c-1.1,1.3-1.6,3-1.6,4.7c-0.1,1.8,0.5,3.5,1.7,4.8c1.3,1.2,3,1.9,4.8,1.8
	c1.8,0.1,3.6-0.5,4.9-1.7l0.1-0.1L45,20.5l-0.4,0.6c-0.9,1.3-2.3,2-3.8,1.9c-1.4,0.1-2.7-0.7-3.3-1.9c-0.5-0.9-0.7-1.9-0.7-2.9h9.1
	V18c0-2.3-0.5-3.9-1.5-5C43.2,11.9,41.7,11.4,40.1,11.5z M36.8,16.7c0.3-2.4,1.3-3.6,3.2-3.6s2.7,1.2,2.8,3.6H36.8z"/>
<polygon class="st0" points="3.4,25 13.6,25 13.6,22.7 6.9,22.7 6.9,16 13.1,16 13.1,13.8 6.9,13.8 6.9,8.3 13.6,8.3 13.6,6 3.4,6 
	"/>
<path class="st0" d="M57.8,17.7L57.8,17.7c-0.9-0.5-2-0.9-3-1.1c-1.5-0.4-2.2-1-2.2-2c0-0.4,0.2-0.9,0.5-1.2c0.5-0.3,1-0.5,1.6-0.4
	c0.5,0,1.1,0.1,1.5,0.4l0.2,0.1l0,0l0.2,0.2l0,0l0,0c0.3,0.4,0.5,0.8,0.6,1.2v0.4l1.2-3.1l-0.2-0.1c-1.1-0.6-2.3-0.9-3.5-0.9
	c-1.4-0.1-2.8,0.4-3.7,1.4c-0.7,0.7-1,1.6-1,2.6c0,1.8,1,3,3.1,3.6c0.9,0.2,1.8,0.6,2.7,1c0.5,0.3,0.9,0.8,0.8,1.4
	c0,0.5-0.2,1-0.6,1.3c-0.5,0.3-1.1,0.5-1.7,0.5c-0.6,0-1.2-0.1-1.7-0.4c-0.3-0.2-0.6-0.5-0.9-0.8c-0.2-0.2-0.3-0.5-0.4-0.7L51,20.5
	l-1.2,3l0.2,0.1c1.1,0.8,2.5,1.1,3.9,1.1c1.5,0.1,2.9-0.4,4-1.4c0.8-0.8,1.2-1.8,1.2-3C59.2,19.4,58.7,18.3,57.8,17.7z"/>
<polygon class="st0" points="90.1,12.4 86.9,20.2 83.7,11.6 83.6,11.5 80,11.5 80.6,12.9 85.2,24 85.3,24.5 87.6,24.5 87.8,24.1 
	92.9,12.3 93.2,11.5 90.4,11.5 "/>
<path class="st0" d="M101.8,11.5c-1.8-0.1-3.6,0.6-4.8,2c-1.1,1.3-1.6,3-1.6,4.7c0,1.8,0.6,3.5,1.8,4.8c1.3,1.2,3,1.9,4.8,1.8
	c1.8,0.1,3.6-0.5,4.9-1.7L107,23l-0.2-2.5l-0.4,0.6c-0.9,1.3-2.3,2-3.8,1.9c-1.4,0.1-2.7-0.7-3.3-1.9c-0.5-0.9-0.7-1.9-0.7-2.9h9.1
	V18c0-2.3-0.5-3.9-1.5-5C104.9,11.9,103.4,11.4,101.8,11.5z M98.6,16.7c0.3-2.4,1.3-3.6,3.2-3.6s2.7,1.2,2.8,3.6H98.6z"/>
<polygon class="st0" points="105.7,0.9 107.2,0.9 107.2,5.4 108.8,5.4 108.8,0.9 110.3,0.9 110.3,0 105.7,0 "/>
<path class="st0" d="M117.9,0h-1.1l0,0c-0.1,0.2-0.2,0.5-0.3,0.8c-0.3,0.8-0.7,1.7-1.2,2.6c-0.2-0.4-0.4-0.9-0.7-1.7
	S114,0.3,113.9,0l0,0h-1.2L112,5.5h1l0.3-3.4c0.3,0.7,0.7,1.5,1,2.2c0.1,0.4,0.2,0.8,0.3,1.1l0,0h0.6l1.5-3.4l0.3,3.4h1.5L117.9,0z"
	/>
</svg>
