<svg id="圖層_1" data-name="圖層 1" xmlns="http://www.w3.org/2000/svg" viewBox="0 0 127.45 113.1"><defs><style>.cls-1{fill:#fff;}</style></defs><title>3ELOGO</title><path class="cls-1" d="M28.81,98l-.12-.26c-1.35-3.29-2.52-6.4-3.48-9.27l-.05-.12H21.47l.12.26c.89,1.92,1.5,3.3,1.82,4.1,1.26,3,2.26,5.41,3,7.12l.79,2-3.33,7.75h2.64l9.22-21.18H33Z"/><rect class="cls-1" x="73.56" y="81.33" width="3.31" height="21.02"/><path class="cls-1" d="M85.87,82.33a1.63,1.63,0,0,0-1.19.5,1.71,1.71,0,0,0,0,2.42,1.63,1.63,0,0,0,1.19.5,1.67,1.67,0,0,0,1.22-.5,1.63,1.63,0,0,0,.5-1.2,1.71,1.71,0,0,0-1.72-1.72Z"/><rect class="cls-1" x="84.18" y="88.45" width="3.19" height="13.89"/><path class="cls-1" d="M45.87,88.28a6.51,6.51,0,0,0-5.2,2.16A7.62,7.62,0,0,0,39,95.55a7.19,7.19,0,0,0,1.88,5.23A6.89,6.89,0,0,0,46,102.7a7.43,7.43,0,0,0,5.31-1.85l.06-.06-.16-2.38-.31.42A5,5,0,0,1,46.62,101a4.08,4.08,0,0,1-3.75-2.1,7,7,0,0,1-.72-3.4h10v-.18c0-2.44-.5-4.27-1.66-5.44A6.21,6.21,0,0,0,45.87,88.28ZM42.17,94c.3-2.83,1.5-4.21,3.66-4.21S49,91.18,49,94Z"/><polygon class="cls-1" points="4.43 102.9 15.47 102.9 15.47 100.61 8.08 100.61 8.08 93.05 14.92 93.05 14.92 90.77 8.08 90.77 8.08 84.57 15.47 84.57 15.47 82.29 4.43 82.29 4.43 102.9"/><path class="cls-1" d="M65.87,95.12h0a11.73,11.73,0,0,0-3.24-1.2c-1.67-.43-2.48-1.17-2.48-2.27a1.73,1.73,0,0,1,.61-1.37,2.71,2.71,0,0,1,1.8-.54,3,3,0,0,1,1.71.44l.23.18h0a.12.12,0,0,1,0,0,2.37,2.37,0,0,1,.27.28l0,.08a3.18,3.18,0,0,1,.63,1.41l1.13-2.92-.15-.08a8,8,0,0,0-3.77-1,5,5,0,0,0-4,1.55,4.09,4.09,0,0,0-1,2.79c0,1.87,1.11,3.18,3.31,3.89a16.65,16.65,0,0,1,3,1.15,1.68,1.68,0,0,1,.76,1.51,1.76,1.76,0,0,1-.75,1.55,3.17,3.17,0,0,1-1.89.55,3.73,3.73,0,0,1-2-.5,2.93,2.93,0,0,1-1-.91,3.61,3.61,0,0,1-.42-.82l-.18-.43-1.15,2.92.12.09a7.1,7.1,0,0,0,4.19,1.17,5.82,5.82,0,0,0,4.27-1.5,4.33,4.33,0,0,0,1.28-3.17A3.37,3.37,0,0,0,65.87,95.12Z"/><polygon class="cls-1" points="106.48 88.34 106.02 88.34 103.85 88.34 103.65 88.34 103.3 89.2 99.71 98.05 96.06 88.34 94.11 88.34 92.76 88.34 92.31 88.34 92.89 89.71 97.91 101.9 97.91 101.9 98.08 102.34 98.29 102.34 98.66 102.34 99.85 102.34 100.25 102.34 100.44 102.34 100.6 101.97 106.18 88.99 106.48 88.34"/><path class="cls-1" d="M116.71,88.28a6.52,6.52,0,0,0-5.2,2.16,7.62,7.62,0,0,0-1.69,5.11,7.19,7.19,0,0,0,1.88,5.23,6.9,6.9,0,0,0,5.15,1.92,7.43,7.43,0,0,0,5.31-1.85l.06-.06-.16-2.38-.3.42a5,5,0,0,1-4.29,2.19,4.09,4.09,0,0,1-3.76-2.1,7,7,0,0,1-.72-3.4h10v-.18c0-2.44-.5-4.27-1.65-5.44A6.25,6.25,0,0,0,116.71,88.28ZM113,94c.3-2.83,1.5-4.21,3.66-4.21s3.13,1.38,3.18,4.21Z"/><rect class="cls-1" x="33.98" y="9.99" width="59.49" height="9.25" rx="0.27" ry="0.27"/><rect class="cls-1" x="33.98" y="30.84" width="59.49" height="9.25" rx="0.27" ry="0.27"/><rect class="cls-1" x="33.98" y="51.69" width="59.49" height="9.25" rx="0.27" ry="0.27"/><path class="cls-1" d="M100.08,11.46v6.3H27.36v-6.3h72.72m.68-1.47H26.69a.8.8,0,0,0-.8.8v7.65a.8.8,0,0,0,.8.8h74.07a.8.8,0,0,0,.8-.8V10.79a.8.8,0,0,0-.8-.8Z"/><path class="cls-1" d="M100.08,32.31v6.3H27.36v-6.3h72.72m.68-1.47H26.69a.8.8,0,0,0-.8.8v7.65a.8.8,0,0,0,.8.8h74.07a.8.8,0,0,0,.8-.8V31.64a.8.8,0,0,0-.8-.8Z"/><path class="cls-1" d="M100.08,53.16v6.3H27.36v-6.3h72.72m.68-1.47H26.69a.8.8,0,0,0-.8.8v7.65a.8.8,0,0,0,.8.8h74.07a.8.8,0,0,0,.8-.8V52.49a.8.8,0,0,0-.8-.8Z"/></svg>