<svg id="圖層_1" data-name="圖層 1" xmlns="http://www.w3.org/2000/svg" viewBox="0 0 184.09 113.1"><defs><style>.cls-1{fill:#fff;}</style></defs><title>CREATIVELOGO</title><rect class="cls-1" x="4.24" y="9.99" width="15.4" height="95.9"/><path class="cls-1" d="M55.34,10v3.8h0a11.5,11.5,0,0,1,11.5,11.5h3.8V10Z"/><path class="cls-1" d="M66.94,90.59a11.5,11.5,0,0,1-11.5,11.5h0v3.8h15.3V90.59Z"/><path class="cls-1" d="M55.34,44.79h-3.8A11.5,11.5,0,0,1,40,56.29h0v3.9h0a11.5,11.5,0,0,1,11.5,11.5h3.8Z"/><path class="cls-1" d="M91.6,84.25a2.12,2.12,0,0,1-.39.33,2.73,2.73,0,0,1-.48.25,3.45,3.45,0,0,1-.52.16,2.37,2.37,0,0,1-.52.06,2.61,2.61,0,0,1-.9-.17,2.14,2.14,0,0,1-.8-.54,2.64,2.64,0,0,1-.58-.94A3.77,3.77,0,0,1,87.19,82a4.21,4.21,0,0,1,.22-1.45,3.05,3.05,0,0,1,.56-1,2.27,2.27,0,0,1,.78-.58,2.14,2.14,0,0,1,.85-.19,2.07,2.07,0,0,1,1,.23,2.52,2.52,0,0,1,.82.71h0l.37-1.07a2.48,2.48,0,0,0-.43-.2,5,5,0,0,0-.55-.17,3.84,3.84,0,0,0-.59-.11,4,4,0,0,0-.58,0,5.62,5.62,0,0,0-1.6.22,3.69,3.69,0,0,0-1.33.7,3.48,3.48,0,0,0-.92,1.25,4.58,4.58,0,0,0-.34,1.86,3.79,3.79,0,0,0,.26,1.4,3.21,3.21,0,0,0,.77,1.12,3.62,3.62,0,0,0,1.22.74,4.66,4.66,0,0,0,1.64.27,5.54,5.54,0,0,0,1.2-.12,4.08,4.08,0,0,0,1-.34Z"/><path class="cls-1" d="M104.23,83.77c-.38-.6-.75-1.2-1.08-1.8a2.31,2.31,0,0,0,1.21-.68,1.88,1.88,0,0,0,.42-1.26,1.74,1.74,0,0,0-.18-.82,1.68,1.68,0,0,0-.41-.47,4.78,4.78,0,0,0-2.23-.47c-1,0-2.11,0-2.11,0v7.28h1.73c0-.23,0-.46,0-.68s0-.45,0-.69,0-.48,0-.73V82.2h.09l1.89,3.36h1.91C105,85,104.62,84.37,104.23,83.77Zm-2.5-2h-.11l-.12,0c0-1,0-1.91,0-2.87a5.22,5.22,0,0,1,.74,0,1.07,1.07,0,0,1,.51.19.79.79,0,0,1,.29.41,2.44,2.44,0,0,1,.1.74,1.58,1.58,0,0,1-.37,1.13A1.42,1.42,0,0,1,101.73,81.77Z"/><path class="cls-1" d="M114.76,79.2h2.4v-.92h-4.09v7.28h4.09v-.92h-2.4V82.19h2.35v-.9h-2.35V79.2Z"/><path class="cls-1" d="M129.52,85.56h1.83l-2.94-7.34h-.8l-3,7.34h1l.8-2.14h2.32Zm-1.91-5.3.91,2.52h-1.85Z"/><polygon class="cls-1" points="143.43 78.28 138 78.28 138 79.21 139.88 79.21 139.88 85.56 141.61 85.56 141.61 79.21 143.43 79.21 143.43 78.28"/><rect class="cls-1" x="151.41" y="78.28" width="1.73" height="7.29"/><path class="cls-1" d="M177.26,79.2h2.39v-.92h-4.09v7.28h4.09v-.92h-2.39V82.19h2.35v-.9h-2.35V79.2Z"/><polygon class="cls-1" points="166.87 78.28 164.88 83.58 163 78.28 161.12 78.28 163.98 85.56 164.91 85.56 167.8 78.28 166.87 78.28"/><path class="cls-1" d="M116.94,104.55h1.83l-2.94-7.34H115l-3,7.34h1l.8-2.14h2.33ZM115,99.25l.9,2.51h-1.84Z"/><path class="cls-1" d="M130.9,103.24a2.12,2.12,0,0,1-.39.33,3.67,3.67,0,0,1-.48.25,3.45,3.45,0,0,1-.52.16,2.35,2.35,0,0,1-.52,0,2.59,2.59,0,0,1-.9-.16,2.14,2.14,0,0,1-.8-.54,2.64,2.64,0,0,1-.58-.94,3.79,3.79,0,0,1-.22-1.39,4.46,4.46,0,0,1,.21-1.44,3.25,3.25,0,0,1,.57-1,2.27,2.27,0,0,1,.78-.58,2.13,2.13,0,0,1,.84-.19,2.2,2.2,0,0,1,1,.22,2.81,2.81,0,0,1,.82.72h0l.37-1.07a2.29,2.29,0,0,0-.44-.2,4.26,4.26,0,0,0-.54-.17,3.84,3.84,0,0,0-.59-.11,4,4,0,0,0-.58,0,5.62,5.62,0,0,0-1.6.22,3.69,3.69,0,0,0-1.33.7,3.37,3.37,0,0,0-.92,1.25,4.58,4.58,0,0,0-.34,1.86,3.6,3.6,0,0,0,.26,1.4,3.21,3.21,0,0,0,.77,1.12,3.62,3.62,0,0,0,1.22.74,4.66,4.66,0,0,0,1.64.27,5.54,5.54,0,0,0,1.2-.12,4.25,4.25,0,0,0,1-.34Z"/><path class="cls-1" d="M140.75,98.18h2.39v-.91h-4.09v7.28h4.09v-.92h-2.39v-2.45h2.35v-.9h-2.35V98.19Z"/><path class="cls-1" d="M90.63,101.32a2.33,2.33,0,0,0-.59-.66,4,4,0,0,0-.77-.45c-.28-.13-.54-.25-.78-.39a2.48,2.48,0,0,1-.59-.45.88.88,0,0,1-.24-.64.86.86,0,0,1,.31-.66,1.1,1.1,0,0,1,.79-.29,1.25,1.25,0,0,1,1.26.89l.51-1a2.11,2.11,0,0,0-.73-.38,3.06,3.06,0,0,0-1-.14,2.66,2.66,0,0,0-.9.15,2.11,2.11,0,0,0-.76.43,2,2,0,0,0-.52.71,2.27,2.27,0,0,0-.2,1,1.86,1.86,0,0,0,.24,1,2.4,2.4,0,0,0,.58.65,3.77,3.77,0,0,0,.76.44c.27.13.53.25.76.38a2.42,2.42,0,0,1,.58.45,1,1,0,0,1,.23.66,1.07,1.07,0,0,1-.3.76,1.26,1.26,0,0,1-.93.31,1.62,1.62,0,0,1-.57-.09,1.25,1.25,0,0,1-.44-.24,1.32,1.32,0,0,1-.3-.37,1.5,1.5,0,0,1-.15-.42l-.49,1.33a2,2,0,0,0,.66.31,3.54,3.54,0,0,0,1,.14,3.47,3.47,0,0,0,1.15-.18,2.44,2.44,0,0,0,.88-.49,2.08,2.08,0,0,0,.57-.75,2.34,2.34,0,0,0,.2-1A1.8,1.8,0,0,0,90.63,101.32Z"/><path class="cls-1" d="M105.32,98.31a1.74,1.74,0,0,0-.49-.61,1.61,1.61,0,0,0-.67-.32,4,4,0,0,0-1-.11h0c-.29,0-1.86,0-1.86,0h-.74v7.28h1.74v-3.17h.45a4.67,4.67,0,0,0,1.09-.12,2.62,2.62,0,0,0,.86-.4,1.76,1.76,0,0,0,.56-.7,2.36,2.36,0,0,0,.2-1A1.86,1.86,0,0,0,105.32,98.31Zm-1.65,1.8a1.22,1.22,0,0,1-.39.47,1.28,1.28,0,0,1-.51.21,3.44,3.44,0,0,1-.45,0v-3h.37a1.25,1.25,0,0,1,.43.07.88.88,0,0,1,.36.24,1.15,1.15,0,0,1,.24.44,2.17,2.17,0,0,1,.09.67A2.09,2.09,0,0,1,103.67,100.11Z"/></svg>