<?xml version="1.0" encoding="utf-8"?>
<!-- Generator: Adobe Illustrator 22.1.0, SVG Export Plug-In . SVG Version: 6.00 Build 0)  -->
<svg version="1.1" id="圖層_1" xmlns="http://www.w3.org/2000/svg" xmlns:xlink="http://www.w3.org/1999/xlink" x="0px" y="0px"
	 viewBox="0 0 1115.6 296.1" style="enable-background:new 0 0 1115.6 296.1;" xml:space="preserve">
<style type="text/css">
	.st0{fill:#6F6F6F;}
</style>
<g>
	<path class="st0" d="M216,192.3c0-0.1,0-0.1-0.1-0.2c-11.7-28.5-21.9-55.5-30.2-80.3l-0.6-1.8h-34.3l1.7,3.7
		c7.7,16.7,13,28.7,15.7,35.5c10.9,26,19.6,46.8,25.9,61.8l6.7,16.5l-29.3,68.2h25L277.4,110h-26L216,192.3z"/>
	<rect x="587.9" y="49.2" class="st0" width="30.7" height="184.4"/>
	<path class="st0" d="M690.6,57.9c-4.3,0-8,1.6-11.1,4.6c-3.1,3.1-4.6,6.9-4.6,11.3c0,4.3,1.6,8,4.6,11.1c3.1,3.1,6.8,4.6,11.1,4.6
		c4.4,0,8.2-1.6,11.3-4.6c3.1-3.1,4.6-6.8,4.6-11.1c0-4.4-1.6-8.2-4.6-11.3C698.8,59.5,695,57.9,690.6,57.9z"/>
	<rect x="674.9" y="111" class="st0" width="29.7" height="122.5"/>
	<path class="st0" d="M358.9,109.5c-19.6,0-35,6.4-45.9,19.1c-9.9,11.6-14.9,26.7-14.9,45c0,19.3,5.6,34.8,16.6,46.1
		s26.3,17,45.4,17c19.6,0,35.3-5.5,46.8-16.4l0.9-0.8l-1.7-23.8l-4.2,5.9c-8.8,12.3-21.1,18.5-36.4,18.5c-14.2,0-24.6-5.8-31.7-17.7
		c-3.8-6.4-5.9-15.8-6.2-28h87l0.1-2.5c0.4-21.4-4.5-37.6-14.7-48C390.6,114.4,376.8,109.5,358.9,109.5z M327.9,159.2
		c2.8-23.2,12.8-34.6,30.7-34.6c17.3,0,26,11.3,26.6,34.6H327.9z"/>
	<polygon class="st0" points="8.6,238.4 106.4,238.4 106.4,216.6 42.3,216.6 42.3,152.9 101.6,152.9 101.6,131.1 42.3,131.1 
		42.3,79.3 106.4,79.3 106.4,57.5 8.6,57.5 	"/>
	<path class="st0" d="M527.9,169.1L527.9,169.1c-5.2-3.5-14.5-6.9-28.5-10.6c-14-3.6-20.8-9.7-20.8-18.8c0-4.6,1.6-8.2,5-11.1
		c3.5-3,8.5-4.5,14.9-4.5c6.1,0,10.9,1.2,14.3,3.6c0.7,0.5,1.3,1,1.9,1.5l0.4,0.3c0.8,0.7,1.5,1.5,2.1,2.2c0.1,0.1,0.2,0.3,0.2,0.4
		l0.2,0.3c2.9,3.8,4.7,7.8,5.3,11.8l0.5,3.7l11.5-29.7l-2.1-1.1c-10.5-5.5-21.7-8.3-33.2-8.3c-15.6,0-27.5,4.6-35.4,13.7
		c-6.1,6.9-9.1,15.3-9.1,24.9c0,16.7,9.9,28.3,29.4,34.6c13.8,4.4,22.5,7.7,25.8,9.9c4.1,2.7,6.1,6.8,6.1,12.3c0,5.6-2,9.7-6.1,12.6
		c-4.3,3.1-9.6,4.6-15.8,4.6c-6.1,0-11.7-1.4-16.4-4.2c-3.5-2-6.3-4.6-8.4-7.7c-1.2-1.6-2.4-3.9-3.6-6.9l-2.4-6l-11.2,28.3l1.7,1.2
		c9.7,6.9,22.2,10.4,37,10.4c16.2,0,28.8-4.5,37.7-13.3c7.6-7.6,11.4-17.1,11.4-28.2C540.4,183.7,536.2,174.9,527.9,169.1z"/>
	<polygon class="st0" points="835.8,118.1 805.6,192.6 774.8,110.7 774.5,110 739.8,110 745.5,123.3 789,229.1 790.8,233.5 
		812.5,233.5 814.2,229.7 862.6,117.1 865.9,110 839,110 	"/>
	<path class="st0" d="M947.9,109.5c-19.6,0-35,6.4-45.9,19.1c-9.9,11.6-14.9,26.7-14.9,45c0,19.3,5.6,34.8,16.6,46.1
		s26.3,17,45.4,17c19.6,0,35.3-5.5,46.8-16.4l0.9-0.8l-1.7-23.8l-4.2,5.9c-8.8,12.3-21.1,18.5-36.4,18.5c-14.2,0-24.6-5.8-31.7-17.7
		c-3.8-6.4-5.9-15.8-6.2-28h87l0.1-2.5c0.4-21.4-4.5-37.6-14.7-48C979.6,114.4,965.8,109.5,947.9,109.5z M916.9,159.2
		c2.8-23.2,12.8-34.6,30.7-34.6c17.3,0,26,11.3,26.6,34.6H916.9z"/>
	<polygon class="st0" points="985.1,8 999.7,8 999.7,51.9 1014.6,51.9 1014.6,8 1029,8 1029,0 985.1,0 	"/>
	<path class="st0" d="M1101.8,0h-10.7l-0.1,0.3c-0.8,2.4-1.8,5-2.9,7.8c-3.3,7.9-7.1,16.3-11.3,25.2c-1.6-3.5-4-8.9-7.1-16.4
		c-3.4-8.4-5.6-14-6.4-16.6l-0.1-0.4h-11l-7.7,51.9h9.1l3.1-32.2c3.2,7,6.3,14,9.3,20.8c1.8,4.1,3.2,7.8,4.2,11l0.1,0.3h6l14.2-32.4
		l2.9,32.4h14.7L1101.8,0z"/>
</g>
</svg>
